{"title":"The.Cell.2.2009.DVDRIP.XviD-ZEKTORM","uid":4938242,"size":737912271,"categoryP":"video","categoryS":"movies","magnet":"?xt=urn:btih:d3a82aa61307649535f28836af363c4b7baff1d3&amp;dn=The.Cell.2.2009.DVDRIP.XviD-ZEKTORM&amp;tr=udp%3A%2F%2Ftracker.openbittorrent.com%3A80&amp;tr=udp%3A%2F%2Fopen.demonii.com%3A1337&amp;tr=udp%3A%2F%2Ftracker.coppersurfer.tk%3A6969&amp;tr=udp%3A%2F%2Fexodus.desync.com%3A6969","seeders":0,"leechers":0,"uploader":"blowley","files":5,"time":1244340199,"description":"Title                            : The Cell 2\nYear                             : 2009\nGenre                            : Sci-Fi | Thriller\niMDB URL                         : http://www.imdb.com/title/tt1185837/\n\nComplete name                    : TC2-ZEKTORM.avi\nFormat                           : AVI\nFile size                        : 701 MiB\nDuration                         : 1h 33mn\nOverall bit rate                 : 1051 Kbps\nSubtitles                        : English (Format: VobSub)\nSource                           : DVD NTSC\n\nVideo\nFormat                           : MPEG-4 Visual\nFormat profile                   : Streaming Video@L1\nCodec ID                         : XVID\nCodec ID/Hint                    : XviD\nDuration                         : 1h 33mn\nBit rate                         : 929 Kbps\nWidth                            : 720 pixels\nHeight                           : 416 pixels\nDisplay aspect ratio             : 16/9\nFrame rate                       : 23.976 fps\nResolution                       : 24 bits\nColorimetry                      : 4:2:0\nScan type                        : Progressive\nBits/(Pixel*Frame)               : 0.129\nStream size                      : 620 MiB (88%)\nWriting library                  : XviD\n\nAudio\nFormat                           : MPEG Audio\nFormat version                   : Version 1\nFormat profile                   : Layer 3\nCodec ID                         : 55\nCodec ID/Hint                    : MP3\nDuration                         : 1h 33mn\nBit rate mode                    : Variable\nBit rate                         : 108 Kbps\nMinimum bit rate                 : 128 Kbps\nChannel(s)                       : 2 channels\nSampling rate                    : 48.0 KHz\nResolution                       : 16 bits\nVideo delay                      : 96ms\nStream size                      : 72.3 MiB (10%)\nWriting library                  : LAME3.98r\nEncoding settings                : ABR\n","torrent":{"xt":"urn:btih:d3a82aa61307649535f28836af363c4b7baff1d3","amp;dn":"The.Cell.2.2009.DVDRIP.XviD-ZEKTORM","amp;tr":["udp%3A%2F%2Ftracker.openbittorrent.com%3A80","udp%3A%2F%2Fopen.demonii.com%3A1337","udp%3A%2F%2Ftracker.coppersurfer.tk%3A6969","udp%3A%2F%2Fexodus.desync.com%3A6969"],"infoHash":"d3a82aa61307649535f28836af363c4b7baff1d3","infoHashBuffer":{"type":"Buffer","data":[211,168,42,166,19,7,100,149,53,242,136,54,175,54,60,75,123,175,241,211]},"announce":[],"urlList":[]}}